<svg width="200" height="38" viewBox="0 0 200 38" fill="none" xmlns="http://www.w3.org/2000/svg">
<g clip-path="url(#clip0_60_3104)">
<path d="M9.55962 20.6537C9.92946 22.2917 10.7508 23.7906 11.9289 24.9775C13.107 26.1643 14.5936 26.9906 16.2172 27.3608C17.4935 27.6698 18.8211 27.6943 20.1077 27.4328C21.3943 27.1713 22.6091 26.6299 23.6673 25.8464C24.7256 25.0629 25.602 24.0561 26.2355 22.896C26.869 21.7359 27.2445 20.4504 27.3358 19.1289C27.3391 19.0508 27.3266 18.9729 27.2991 18.8999C27.2716 18.8269 27.2296 18.7603 27.1757 18.7042C27.1218 18.6481 27.0571 18.6037 26.9857 18.5737C26.9142 18.5437 26.8374 18.5286 26.76 18.5296H23.0576C22.916 18.528 22.7786 18.5789 22.6716 18.6726C22.5646 18.7663 22.4953 18.8963 22.4768 19.0381C22.3515 20.1487 21.7942 21.1636 20.9275 21.8595C20.0608 22.5553 18.9557 22.8752 17.8554 22.7487C16.755 22.6223 15.7495 22.0597 15.06 21.185C14.3705 20.3102 14.0536 19.1949 14.1789 18.0843C14.3393 17.0359 14.8633 16.0791 15.6574 15.3842C16.4516 14.6894 17.4644 14.3016 18.5153 14.2902H36.0813C36.2334 14.2892 36.379 14.2275 36.4862 14.1187C36.5934 14.0098 36.6535 13.8625 36.6535 13.709V9.97298C36.6535 9.81948 36.5934 9.67223 36.4862 9.56334C36.379 9.45446 36.2334 9.39281 36.0813 9.39185H18.3325C16.9664 9.39377 15.6184 9.70826 14.39 10.3117C13.1616 10.9151 12.0848 11.7917 11.2404 12.8757C10.396 13.9596 9.80606 15.2227 9.51495 16.5699C9.22383 17.9171 9.23911 19.3133 9.55962 20.6537Z" fill="#EB0029"/>
<path d="M71.0449 10.2244C69.791 9.57941 68.3999 9.25347 66.9927 9.27492C65.6019 9.2699 64.2334 9.62748 63.0197 10.313C61.9832 10.8749 61.1146 11.7066 60.5043 12.7218C59.8794 11.6828 58.9892 10.8325 57.9269 10.26C56.6621 9.59167 55.2518 9.25305 53.8243 9.27492C52.7197 9.26884 51.626 9.49702 50.6143 9.94469C49.8564 10.276 49.1645 10.7437 48.5724 11.3249V10.0987C48.5724 10.0305 48.5591 9.96297 48.5332 9.89995C48.5074 9.83694 48.4695 9.77965 48.4217 9.73142C48.3739 9.68319 48.3172 9.64495 48.2547 9.61885C48.1923 9.59275 48.1254 9.5793 48.0578 9.5793H44.7304C44.6627 9.57921 44.5957 9.59261 44.5331 9.61872C44.4705 9.64482 44.4137 9.68311 44.3658 9.73142C44.3179 9.77974 44.28 9.83711 44.2541 9.90026C44.2283 9.96341 44.215 10.0311 44.2151 10.0994V28.3539C44.2151 28.4917 44.2693 28.6238 44.3658 28.7212C44.4623 28.8186 44.5932 28.8733 44.7297 28.8733H48.0513C48.1878 28.8733 48.3187 28.8186 48.4152 28.7212C48.5117 28.6238 48.5659 28.4917 48.5659 28.3539V18.1185C48.4756 16.7776 48.9048 15.4538 49.7629 14.426C50.1854 13.9973 50.6926 13.663 51.2514 13.4447C51.8102 13.2265 52.4083 13.1292 53.0067 13.1591C53.6026 13.1282 54.1982 13.2249 54.7543 13.443C55.3105 13.6611 55.8145 13.9957 56.2333 14.4246C57.0819 15.4574 57.5047 16.7799 57.4144 18.1185V28.3539C57.4144 28.4917 57.4686 28.6238 57.5651 28.7212C57.6616 28.8186 57.7925 28.8733 57.929 28.8733H61.2226C61.3591 28.8733 61.4901 28.8186 61.5867 28.7212C61.6833 28.6238 61.7377 28.4917 61.7379 28.3539V18.1185C61.6476 16.7776 62.0767 15.4538 62.9348 14.426C63.3574 13.9972 63.8645 13.6628 64.4233 13.4446C64.9822 13.2263 65.5802 13.1291 66.1787 13.1591C66.7744 13.1282 67.3699 13.225 67.926 13.4431C68.482 13.6612 68.9859 13.9957 69.4046 14.4246C70.2531 15.4574 70.676 16.7799 70.5857 18.1185V28.3539C70.5859 28.4917 70.6402 28.6238 70.7369 28.7212C70.8335 28.8186 70.9644 28.8733 71.101 28.8733H74.3938C74.5303 28.8733 74.6612 28.8186 74.7577 28.7212C74.8542 28.6238 74.9084 28.4917 74.9084 28.3539V17.541C74.9508 15.9813 74.597 14.4365 73.8806 13.0538C73.2333 11.8485 72.2464 10.8639 71.0449 10.2244Z" fill="#EB0029"/>
<path d="M97.288 9.58134H93.9268C93.7903 9.58134 93.6594 9.63606 93.5629 9.73346C93.4664 9.83087 93.4122 9.96301 93.4122 10.1008V11.8674C92.6177 11.02 91.6551 10.3511 90.5872 9.90434C89.5193 9.45762 88.3701 9.24311 87.2145 9.27479C85.6023 9.25796 84.0168 9.69146 82.6335 10.5273C81.2501 11.3632 80.1226 12.5689 79.3758 14.0111C78.559 15.5951 78.148 17.3602 78.1804 19.1455C78.1523 20.9451 78.5623 22.7241 79.3744 24.3264C80.1172 25.7928 81.24 27.0285 82.6233 27.9019C83.8959 28.6741 85.3399 29.1123 86.8234 29.1765C88.307 29.2407 89.7828 28.9289 91.1162 28.2695C91.9763 27.8304 92.754 27.2434 93.4144 26.5348V28.3581C93.4144 28.4959 93.4686 28.628 93.5651 28.7254C93.6616 28.8228 93.7925 28.8775 93.929 28.8775H97.2902C97.4267 28.8775 97.5576 28.8228 97.6541 28.7254C97.7506 28.628 97.8048 28.4959 97.8048 28.3581V10.1029C97.8051 10.0344 97.7919 9.96642 97.766 9.90301C97.7402 9.8396 97.7021 9.78195 97.6541 9.73346C97.606 9.68497 97.549 9.64656 97.4861 9.62045C97.4233 9.59434 97.356 9.58105 97.288 9.58134ZM92.65 22.4791C92.1929 23.35 91.5072 24.077 90.6679 24.5807C89.866 25.0524 88.9538 25.2994 88.0257 25.2962C87.1014 25.2946 86.1947 25.0417 85.4008 24.564C84.5524 24.0515 83.8605 23.3128 83.4014 22.429C82.8764 21.4163 82.6139 20.286 82.6384 19.1434C82.6099 18.0177 82.8721 16.9039 83.3992 15.9114C83.7395 15.2914 84.1988 14.7461 84.7503 14.3072C85.3018 13.8684 85.9344 13.5448 86.6111 13.3555C87.2879 13.1661 87.9953 13.1147 88.6919 13.2044C89.3886 13.294 90.0605 13.5228 90.6686 13.8775C91.505 14.3775 92.1906 15.0983 92.6514 15.9623C93.1778 16.9616 93.4401 18.0809 93.4129 19.2124C93.4385 20.3491 93.1759 21.4736 92.65 22.4791Z" fill="#EB0029"/>
<path d="M110.562 9.58134H106.551V5.43124C106.551 5.36306 106.538 5.29557 106.512 5.23256C106.486 5.16955 106.449 5.11227 106.401 5.06403C106.353 5.01579 106.296 4.97753 106.234 4.95141C106.172 4.9253 106.105 4.91187 106.037 4.91187H102.674C102.606 4.91196 102.539 4.92549 102.477 4.95168C102.415 4.97787 102.358 5.01622 102.31 5.06452C102.262 5.11282 102.225 5.17013 102.199 5.23318C102.173 5.29623 102.16 5.36378 102.16 5.43199V23.4053C102.16 25.3144 102.655 26.7207 103.631 27.5852C104.813 28.5132 106.29 28.9724 107.784 28.8761H110.562C110.699 28.8761 110.83 28.8214 110.926 28.724C111.023 28.6266 111.077 28.4944 111.077 28.3567V25.6456C111.077 25.5079 111.023 25.3758 110.926 25.2784C110.83 25.181 110.699 25.1262 110.562 25.1262H108.459C107.929 25.1813 107.397 25.0424 106.96 24.7347C106.806 24.5524 106.691 24.3407 106.621 24.1122C106.55 23.8837 106.527 23.6433 106.551 23.4053V13.2615H110.562C110.699 13.2613 110.83 13.2064 110.926 13.1089C111.023 13.0113 111.077 12.8792 111.077 12.7413V10.0986C111.076 9.96121 111.022 9.82965 110.925 9.73271C110.829 9.63578 110.698 9.58134 110.562 9.58134Z" fill="#EB0029"/>
<path d="M132.363 9.58134H129.002C128.865 9.58134 128.735 9.63606 128.638 9.73346C128.542 9.83087 128.487 9.96301 128.487 10.1008V11.8674C127.693 11.02 126.73 10.3511 125.662 9.90434C124.594 9.45762 123.445 9.24311 122.29 9.27479C120.677 9.25796 119.092 9.69146 117.709 10.5273C116.325 11.3632 115.198 12.5689 114.451 14.0111C113.634 15.5951 113.223 17.3602 113.255 19.1455C113.227 20.9451 113.637 22.7241 114.45 24.3264C115.192 25.7927 116.315 27.0283 117.698 27.9019C118.971 28.6741 120.415 29.1123 121.899 29.1765C123.382 29.2407 124.858 28.9289 126.191 28.2695C127.051 27.8304 127.829 27.2434 128.489 26.5348V28.3581C128.489 28.4959 128.544 28.628 128.64 28.7254C128.737 28.8228 128.868 28.8775 129.004 28.8775H132.365C132.502 28.8775 132.633 28.8228 132.729 28.7254C132.826 28.628 132.88 28.4959 132.881 28.3581V10.1029C132.881 10.0343 132.868 9.96634 132.842 9.90292C132.816 9.83951 132.778 9.7819 132.729 9.73342C132.681 9.68494 132.624 9.64655 132.561 9.62045C132.498 9.59435 132.431 9.58105 132.363 9.58134ZM127.727 22.4791C127.27 23.3503 126.584 24.0775 125.744 24.5807C124.942 25.0524 124.03 25.2994 123.102 25.2962C122.178 25.2947 121.271 25.0418 120.477 24.564C119.629 24.0515 118.937 23.3128 118.478 22.429C117.953 21.4163 117.69 20.286 117.715 19.1434C117.686 18.0177 117.949 16.9039 118.476 15.9114C118.937 15.0574 119.623 14.3479 120.457 13.8607C121.263 13.3985 122.175 13.1574 123.102 13.1612C124.03 13.1579 124.943 13.4049 125.744 13.8767C126.581 14.3768 127.266 15.0976 127.727 15.9616C128.254 16.9609 128.516 18.0803 128.489 19.2116C128.515 20.3485 128.252 21.4732 127.727 22.4791Z" fill="#EB0029"/>
<path d="M151.035 10.2264C149.829 9.58042 148.48 9.25305 147.114 9.2748C145.95 9.26316 144.796 9.49052 143.722 9.9431C142.93 10.2779 142.208 10.7597 141.592 11.3633V3.6588C141.592 3.52098 141.538 3.38876 141.442 3.29124C141.345 3.19372 141.214 3.13886 141.078 3.13867H137.75C137.613 3.13867 137.482 3.19339 137.386 3.29079C137.289 3.3882 137.235 3.52029 137.235 3.65804V28.3567C137.235 28.4249 137.248 28.4924 137.274 28.5554C137.3 28.6185 137.338 28.6757 137.386 28.724C137.434 28.7722 137.49 28.8104 137.553 28.8365C137.615 28.8626 137.682 28.8761 137.75 28.8761H141.078C141.145 28.8761 141.212 28.8626 141.275 28.8365C141.337 28.8104 141.394 28.7722 141.442 28.724C141.489 28.6757 141.527 28.6185 141.553 28.5554C141.579 28.4924 141.592 28.4249 141.592 28.3567V18.1213C141.502 16.7805 141.932 15.4567 142.789 14.4288C143.212 14.0001 143.719 13.6658 144.278 13.4475C144.837 13.2293 145.435 13.132 146.033 13.1619C146.629 13.131 147.225 13.2277 147.781 13.4458C148.337 13.6639 148.841 13.9985 149.26 14.4274C150.108 15.4602 150.531 16.7827 150.441 18.1213V28.3567C150.441 28.4249 150.454 28.4924 150.48 28.5554C150.506 28.6185 150.544 28.6757 150.592 28.724C150.639 28.7722 150.696 28.8104 150.759 28.8365C150.821 28.8626 150.888 28.8761 150.955 28.8761H154.25C154.317 28.8761 154.384 28.8626 154.447 28.8365C154.509 28.8104 154.566 28.7722 154.614 28.724C154.661 28.6757 154.699 28.6185 154.725 28.5554C154.751 28.4924 154.764 28.4249 154.764 28.3567V17.5409C154.806 15.9863 154.465 14.4454 153.772 13.0566C153.156 11.8618 152.204 10.8772 151.035 10.2264Z" fill="#EB0029"/>
<path d="M177.14 9.58137H173.778C173.642 9.58137 173.511 9.63609 173.415 9.7335C173.318 9.8309 173.264 9.96304 173.264 10.1008V11.8675C172.47 11.0199 171.507 10.3509 170.439 9.90415C169.371 9.45742 168.222 9.24297 167.067 9.27482C165.455 9.25811 163.869 9.69165 162.486 10.5275C161.102 11.3633 159.974 12.569 159.227 14.0112C158.411 15.5951 158 17.3602 158.032 19.1456C158.004 20.9452 158.414 22.7243 159.227 24.3265C159.969 25.7928 161.092 27.0285 162.475 27.902C163.748 28.674 165.192 29.1122 166.675 29.1764C168.159 29.2406 169.634 28.9288 170.968 28.2695C171.828 27.8302 172.605 27.2432 173.265 26.5348V28.3582C173.265 28.4959 173.319 28.628 173.416 28.7254C173.512 28.8228 173.643 28.8775 173.78 28.8775H177.142C177.278 28.8775 177.409 28.8228 177.506 28.7254C177.602 28.628 177.656 28.4959 177.656 28.3582V10.103C177.657 10.0344 177.644 9.96654 177.618 9.90318C177.592 9.83981 177.554 9.78224 177.506 9.73376C177.458 9.68528 177.401 9.64685 177.338 9.6207C177.275 9.59455 177.208 9.58118 177.14 9.58137ZM172.502 22.4791C172.045 23.3502 171.359 24.0773 170.519 24.5807C169.718 25.0525 168.805 25.2995 167.877 25.2962C166.953 25.2947 166.046 25.0417 165.252 24.564C164.404 24.0516 163.712 23.3128 163.253 22.429C162.728 21.417 162.466 20.2875 162.49 19.1456C162.461 18.0199 162.723 16.906 163.251 15.9137C163.712 15.0597 164.397 14.3503 165.232 13.863C166.038 13.4008 166.949 13.1596 167.877 13.1634C168.805 13.1601 169.717 13.4071 170.519 13.8789C171.355 14.3792 172.041 15.1 172.502 15.9638C173.028 16.9633 173.29 18.0826 173.263 19.2138C173.289 20.3499 173.027 21.4737 172.502 22.4791Z" fill="#EB0029"/>
<path d="M191.168 9.28941C190.141 9.33121 189.138 9.61162 188.237 10.1088C187.513 10.521 186.878 11.0741 186.369 11.736V10.1008C186.369 9.96308 186.315 9.83095 186.218 9.73354C186.122 9.63613 185.991 9.58142 185.854 9.58142H182.527C182.39 9.58142 182.259 9.63611 182.163 9.7335C182.066 9.83088 182.012 9.96301 182.012 10.1008V28.356C182.012 28.4939 182.066 28.6259 182.163 28.7233C182.259 28.8207 182.39 28.8754 182.527 28.8754H185.854C185.991 28.8754 186.122 28.8207 186.218 28.7233C186.315 28.6259 186.369 28.4938 186.369 28.356V18.7345C186.369 16.9053 186.735 15.6108 187.459 14.8938C188.357 14.1114 189.526 13.721 190.709 13.8085H191.429C191.565 13.8085 191.696 13.7538 191.792 13.6564C191.889 13.559 191.943 13.4269 191.943 13.2891V10.0289C191.943 9.92828 191.923 9.82872 191.883 9.73629C191.844 9.64386 191.786 9.56048 191.714 9.49128C191.641 9.42208 191.556 9.3685 191.462 9.33379C191.369 9.29908 191.269 9.28398 191.17 9.28941H191.168Z" fill="#EB0029"/>
<path d="M199.116 9.58154H195.788C195.504 9.58154 195.273 9.81409 195.273 10.1009V28.3561C195.273 28.643 195.504 28.8755 195.788 28.8755H199.116C199.4 28.8755 199.631 28.643 199.631 28.3561V10.1009C199.631 9.81409 199.4 9.58154 199.116 9.58154Z" fill="#EB0029"/>
<path d="M197.485 6.68594C197.816 6.69128 198.145 6.62832 198.451 6.50091C198.757 6.37351 199.035 6.18432 199.266 5.94496C199.737 5.4544 200 4.79816 200 4.1151C200 3.43204 199.737 2.77575 199.266 2.28519C199.035 2.04583 198.757 1.85669 198.451 1.72928C198.145 1.60187 197.816 1.53891 197.485 1.54426C196.809 1.54426 196.161 1.81512 195.683 2.29725C195.206 2.77937 194.937 3.43327 194.937 4.1151C194.937 4.79693 195.206 5.45082 195.683 5.93295C196.161 6.41507 196.809 6.68594 197.485 6.68594Z" fill="#EB0029"/>
<path d="M32.6833 29.9695C32.8704 29.7319 33.0618 29.498 33.2367 29.251C33.3951 29.028 33.5376 28.7948 33.6859 28.5645C33.85 28.3103 34.0184 28.056 34.1702 27.7967C34.3077 27.5591 34.4294 27.3114 34.5567 27.0666C34.6964 26.7978 34.8403 26.5313 34.9677 26.2545C35.0836 26.0017 35.1836 25.7409 35.288 25.4823C35.4024 25.2004 35.5205 24.9207 35.6212 24.6323C35.7141 24.3657 35.7904 24.0926 35.871 23.8217C35.9588 23.5311 36.0495 23.2405 36.1229 22.9383C36.1906 22.6601 36.2417 22.3761 36.2971 22.0928C36.3568 21.7898 36.4187 21.4884 36.4633 21.1804C36.5051 20.8898 36.5288 20.5992 36.5576 20.3086C36.5799 20.0769 36.6181 19.8503 36.6296 19.6164C36.6271 19.5919 36.6233 19.5677 36.6181 19.5437C36.626 19.4042 36.6476 19.2684 36.6526 19.1282C36.6543 19.0508 36.6406 18.9739 36.6124 18.902C36.5842 18.83 36.542 18.7645 36.4884 18.7093C36.4347 18.654 36.3707 18.6101 36.3 18.5801C36.2294 18.5501 36.1535 18.5347 36.0768 18.5347H32.3687C32.2223 18.5379 32.0826 18.5973 31.978 18.7008C31.8735 18.8043 31.8119 18.9442 31.8059 19.0919C31.7937 19.3948 31.7541 19.6904 31.7231 19.9876C31.6943 20.2592 31.6634 20.5309 31.6195 20.7975C31.5821 21.0154 31.5346 21.2334 31.4871 21.4513C31.4309 21.7085 31.3719 21.9642 31.3014 22.2155C31.2402 22.4335 31.1711 22.6514 31.0991 22.8628C31.0192 23.1018 30.935 23.3386 30.8422 23.571C30.7558 23.7865 30.6644 23.9996 30.5679 24.2103C30.4715 24.421 30.3667 24.6343 30.2534 24.8503C30.1404 25.0682 30.0238 25.2774 29.9 25.4852C29.787 25.6748 29.6683 25.86 29.5466 26.0431C29.4027 26.261 29.2587 26.471 29.1054 26.6765C28.9867 26.8349 28.8622 26.9882 28.7369 27.1407C28.5606 27.3586 28.3828 27.57 28.1942 27.7734C28.0791 27.8977 27.9582 28.0154 27.8387 28.1367C27.6228 28.3546 27.4069 28.5674 27.1751 28.7687C27.0772 28.8544 26.9736 28.9336 26.8735 29.0164C26.6087 29.2343 26.3409 29.4522 26.0595 29.6498C25.999 29.6927 25.935 29.7297 25.8738 29.7718C23.1609 31.6197 19.8746 32.4082 16.628 31.9904V31.994C15.9919 31.9189 15.3615 31.8012 14.7409 31.6417C12.4832 31.0382 10.4234 29.8437 8.76969 28.1791C7.11601 26.5146 5.92707 24.4388 5.32305 22.1617C4.78068 20.1754 4.69101 18.0908 5.06078 16.0645C5.43055 14.0382 6.25017 12.1227 7.45812 10.4617C8.66608 8.80068 10.231 7.43735 12.0356 6.47393C13.8401 5.51051 15.8373 4.97202 17.8775 4.89888C17.9983 4.8966 18.1135 4.84667 18.1984 4.75979C18.2833 4.67291 18.3311 4.55596 18.3316 4.43395V0.48363C18.3319 0.419993 18.3197 0.356924 18.2956 0.29812C18.2715 0.239317 18.236 0.185949 18.1912 0.14112C18.1465 0.0962913 18.0934 0.0609003 18.0349 0.0370152C17.9765 0.0131301 17.9139 0.00121634 17.8509 0.00198838C15.7584 0.06496 13.6888 0.4599 11.7179 1.17228C9.30659 2.03771 7.11436 3.42992 5.29786 5.2495C3.48135 7.06908 2.0854 9.2711 1.20974 11.6983C-3.45922 24.7362 6.04424 37.002 18.3316 37.002C18.9463 37.002 19.5528 36.9717 20.1511 36.9112C20.352 36.8909 20.5463 36.8494 20.7449 36.8226C21.1386 36.7703 21.5366 36.7224 21.9195 36.6454C22.1549 36.5981 22.3816 36.5276 22.6141 36.471C22.9538 36.3889 23.2971 36.3141 23.6296 36.2124C23.8686 36.1398 24.0975 36.0453 24.3314 35.9632C24.6466 35.8521 24.9655 35.7496 25.2728 35.6225C25.5096 35.5245 25.7349 35.4046 25.9667 35.2978C26.2589 35.162 26.5554 35.0334 26.839 34.883C27.07 34.7602 27.2888 34.6186 27.5141 34.4864C27.7847 34.3273 28.0597 34.1755 28.3209 34.0033C28.5426 33.858 28.7528 33.6946 28.9687 33.5398C29.2191 33.359 29.4725 33.1846 29.7143 32.9914C29.9223 32.825 30.116 32.6427 30.316 32.4676C30.5471 32.2657 30.7824 32.0688 31.0027 31.856C31.1948 31.67 31.3733 31.4695 31.5576 31.2748C31.7677 31.0569 31.9815 30.839 32.1802 30.6065C32.3543 30.4009 32.5156 30.183 32.6833 29.9695Z" fill="#EB0029"/>
</g>
<defs>
<clipPath id="clip0_60_3104">
<rect width="200" height="37" fill="white" transform="translate(0 0.00195312)"/>
</clipPath>
</defs>
</svg>
